<svg xmlns="http://www.w3.org/2000/svg" viewBox="0 0 400 400"><defs><style>.cls-1{fill:#618aff;}.cls-2{fill:#fff;}</style></defs><title>Circle-logo-1_1</title><g id="Layer_2" data-name="Layer 2"><g id="Layer_2-2" data-name="Layer 2"><rect class="cls-1" width="400" height="400" rx="200" ry="200"/><path class="cls-2" d="M283.49,106.57a132.93,132.93,0,0,0-41.91-25.88A117.26,117.26,0,0,0,200,72.5H200a117.25,117.25,0,0,0-41.53,8.19,132.93,132.93,0,0,0-41.91,25.88c-20.79,18.94-45.56,53.88-45.56,112.8a8.3,8.3,0,0,0,4.15,7.19c.25.14,25,14.74,29.73,43.23,3.23,19.59,16.5,34.63,38.37,43.5a108.58,108.58,0,0,0,30.89,7.34,8.3,8.3,0,0,0,8.81-8.29V253.43a58.54,58.54,0,0,0,16.74,2.37,59.49,59.49,0,0,0,17.48-2.54v59.08a8.3,8.3,0,0,0,8.3,8.3l.51,0a108.58,108.58,0,0,0,30.89-7.34c21.87-8.87,35.13-23.92,38.37-43.5,1.94-11.72,7.45-22.51,16.38-32.05a67.74,67.74,0,0,1,13.35-11.18,8.3,8.3,0,0,0,4.15-7.19C329.06,160.45,304.28,125.5,283.49,106.57ZM200,89.1H200c16.91,0,41.52,6.09,63.61,22.59l-14.58,27.89H150.55l-14.28-27.83C158.37,95.2,183,89.1,200,89.1Zm-78.75,178C116.49,238.55,96.46,221.31,87.6,215c1.08-46.17,19-75,35.77-92l13.77,26.84.07,35a80,80,0,0,0,8.84,36.59,66.32,66.32,0,0,0,20.23,23.87v57.53C152.08,300.11,125.27,291.75,121.2,267.09Zm39.58-53.32a63.32,63.32,0,0,1-7-29l-.06-28.61h92l-.25,27.36a68.54,68.54,0,0,1-7.09,29.94c-5.88,11.74-17.39,25.73-38.8,25.73C177.34,239.21,165.72,223.27,160.78,213.76Zm118,53.32c-2.26,13.67-11.63,24-27.86,30.67a90.91,90.91,0,0,1-17.22,5.05V244.88c7.87-5.82,14.49-13.88,19.55-24a85.24,85.24,0,0,0,8.85-37.22l.31-33.81,14.11-27c16.75,16.93,34.79,45.81,35.87,92.07C303.54,221.31,283.51,238.55,278.8,267.09Z"/></g></g></svg>